<svg xmlns="http://www.w3.org/2000/svg" xml:space="preserve" style="enable-background:new 0 0 101.4 23.6" viewBox="0 0 101.4 23.6"><path d="M8.8 16.5c-.8 0-1.5-.3-2.1-.9-.6-.6-.9-1.3-.9-2.1V0H0v13.6c0 4.9 4 8.8 8.8 8.8h6.5v-5.9H8.8zM26.5 5.9c-.7 0-1.4.1-2 .4-.6.3-1.2.7-1.7 1.1-.5.5-.9 1.1-1.1 1.7-.3.6-.4 1.3-.4 2s.1 1.4.4 2c.3.6.7 1.2 1.1 1.7.5.5 1.1.9 1.7 1.1.6.3 1.3.4 2 .4 1.4 0 2.8-.6 3.8-1.6s1.6-2.3 1.6-3.8c0-1.4-.6-2.8-1.6-3.8-1-.6-2.4-1.2-3.8-1.2zm-11.2 5.3C15.3 5 20.3 0 26.5 0s11.2 5 11.2 11.2c0 6.2-5 11.2-11.2 11.2s-11.2-5-11.2-11.2zm74.9-5.3c-1.4 0-2.8.6-3.8 1.6s-1.6 2.3-1.6 3.8c0 1.4.6 2.8 1.6 3.8s2.3 1.6 3.8 1.6c1.4 0 2.8-.6 3.8-1.6s1.6-2.3 1.6-3.8c0-1.4-.6-2.8-1.6-3.8-1.1-1-2.4-1.6-3.8-1.6zM79 11.2C79 5 84 0 90.2 0c6.2 0 11.2 5 11.2 11.2 0 6.2-5 11.2-11.2 11.2-6.2 0-11.2-5-11.2-11.2zM50.1 0c-6.2 0-11.2 5-11.2 11.2 0 6.2 5 11.2 11.2 11.2h16.5c1.2 0 2.3-.2 3.3-.5l3.2 1.7 3.4-6.4c.9-1.6 1.3-3.4 1.3-5.3v-.7C77.8 5 72.8 0 66.6 0H50.1zm21.8 11.2c0-1.4-.6-2.8-1.6-3.8S68 5.8 66.5 5.8H50.1c-.7 0-1.4.1-2 .4-.6.3-1.2.7-1.7 1.1-.5.5-.9 1.1-1.1 1.7-.3.6-.4 1.3-.4 2s.1 1.4.4 2c.3.6.7 1.2 1.1 1.7.5.5 1.1.9 1.7 1.1.6.3 1.3.4 2 .4h16.5c1.4 0 2.7-.6 3.7-1.5 1-.7 1.6-2.1 1.6-3.5z" style="fill-rule:evenodd;clip-rule:evenodd;fill:#515282;fill-opacity:.7"/></svg>