<svg xmlns="http://www.w3.org/2000/svg" xml:space="preserve" style="enable-background:new 0 0 21.5 21.5" viewBox="0 0 21.5 21.5"><path d="M.8 14.8c0-2.8 0-4.2.9-5.1.9-.9 2.3-.9 5.1-.9h8c2.8 0 4.2 0 5.1.9.9.9.9 2.3.9 5.1s0 4.2-.9 5.1c-.9.9-2.3.9-5.1.9h-8c-2.8 0-4.2 0-5.1-.9-.9-.9-.9-2.3-.9-5.1z" style="fill:none;stroke:#a1a1a1;stroke-width:1.5"/><path d="M4.8 8.8v-2c0-1.6.6-3.1 1.8-4.2S9.3.8 10.8.8s3.1.6 4.2 1.8c1.1 1.1 1.8 2.7 1.8 4.2v2" style="fill:none;stroke:#a1a1a1;stroke-width:1.5;stroke-linecap:round"/><path d="M6.8 14.8h0m3.9 0h0m4 0h0" style="fill:none;stroke:#a1a1a1;stroke-width:2;stroke-linecap:round;stroke-linejoin:round"/></svg>