<svg xmlns="http://www.w3.org/2000/svg" xml:space="preserve" style="enable-background:new 0 0 13.5 14.2" viewBox="0 0 13.5 14.2"><path d="M.8 6.7v1.5c0 .4.1.8.2 1.2.2.4.4.7.7 1 .3.3.6.5 1 .7.4.2.8.2 1.2.2h9M.8 2.9h9c.4 0 .8.1 1.2.2.4.2.7.4 1 .7.3.3.5.6.7 1 .2.4.2.8.2 1.2v1.5" style="fill:none;stroke:#6b6b6b;stroke-width:1.5;stroke-linecap:round;stroke-linejoin:round"/><path d="m10.5 9 2.3 2.2-2.3 2.3M3 5.3.8 3 3 .8" style="fill:none;stroke:#6b6b6b;stroke-width:1.5;stroke-linecap:round;stroke-linejoin:round"/></svg>