<svg xmlns="http://www.w3.org/2000/svg" xml:space="preserve" style="enable-background:new 0 0 20 17" viewBox="0 0 20 17"><path d="M17.7 2.2H15L13.7.3c-.1-.1-.2-.2-.3-.2-.1-.1-.2-.1-.3-.1H6.9c-.1 0-.2 0-.3.1-.2 0-.2.1-.3.2L5 2.2H2.3c-.6 0-1.2.2-1.6.6-.5.5-.7 1-.7 1.6v10.3c0 .6.2 1.2.7 1.6.4.4 1 .6 1.6.6h15.4c.6 0 1.2-.2 1.6-.6.4-.4.7-1 .7-1.6V4.4c0-.6-.2-1.2-.7-1.6s-1-.6-1.6-.6zm.8 12.6c0 .2-.1.4-.2.5-.1.1-.3.2-.5.2H2.3c-.2 0-.4-.1-.5-.2-.1-.1-.2-.3-.2-.5V4.4c0-.2.1-.4.2-.5.1-.1.3-.2.5-.2h3.1c.1 0 .3 0 .4-.1.1 0 .2-.1.2-.2l1.3-1.9h5.3L14 3.4c.1.1.2.2.3.2.1.1.2.1.4.1h3.1c.2 0 .4.1.5.2.1.1.2.3.2.5v10.4zM10 5.2c-.8 0-1.7.2-2.4.7-.6.4-1.2 1-1.5 1.8s-.4 1.5-.2 2.3c.1.8.5 1.5 1.1 2.1.6.6 1.3 1 2.2 1.1.8.2 1.7.1 2.4-.2.8-.3 1.4-.8 1.9-1.5s.7-1.5.7-2.3c0-1.1-.4-2.1-1.2-2.9s-1.9-1.1-3-1.1zm0 6.6c-.5 0-1.1-.2-1.5-.4-.4-.3-.8-.7-1-1.2-.2-.5-.3-1-.2-1.5.1-.5.4-1 .7-1.3.5-.4 1-.6 1.5-.7.5-.1 1.1 0 1.6.1.5.2.9.5 1.2 1 .3.4.5.9.5 1.4 0 .7-.3 1.3-.8 1.8-.6.6-1.3.8-2 .8z" style="fill:#a1a1a1"/></svg>