<svg xmlns="http://www.w3.org/2000/svg" xml:space="preserve" style="enable-background:new 0 0 215.7 235.9" viewBox="0 0 215.7 235.9"><path d="M132 216.7c-26.6 0-53.3.7-79.9-.7-9.4-.5-22.7-.9-30.6-7-5.9-4.6-.2-21.1 1.2-25.8 7.4-23.8 32.7-38.6 55.5-43.9 12.3-2.9 26.7-1.3 39.2-1.3 16.5 0 31.3 1.2 46.3 9.4 20.2 11 32.1 32.7 32.1 55.3 0 19.3-51.6 14-63.8 14-12.1 0-12.1 18.8 0 18.8 23 0 60 4.5 77.2-15.1 14.1-16.1 1.9-47.2-7.4-62.3-25.2-40.9-73.4-40.2-115.5-38.7-26.9.9-55.7 16.5-71 38.7C5.2 172.7-8.2 203.8 6.4 220c17.2 19.1 53.3 15.4 76.2 15.4h49.6c11.9.2 11.9-18.7-.2-18.7z"/><path d="M108.3 99.9c-53-2.6-53-78.4 0-81 53-2.7 52.7 78.3 0 81-12.1.6-12.1 19.4 0 18.8 33.6-1.7 58.3-25.6 60-59.3s-29-57.8-60-59.3C74.7-1.6 49.9 28.2 48.2 59.4c-1.7 33.7 29 57.8 60 59.3 12.2.6 12.1-18.2.1-18.8z"/></svg>